# 
# Generated by Sweet Home 3D - lun ago 07 17:54:51 COT 2023
# http://www.sweethome3d.com/
# 
mtllib San_Jose.mtl
g ground_1
usemtl ground_1
v 491.65002 0.0 -2.5898438
v 491.65002 0.0 2494.9102
v 3148.15 0.0 2494.9102
v 3145.4734 0.0 2491.247
v 495.4734 0.0 2491.247
v 495.4734 0.0 159.247
v 1438.4734 0.0 159.24707
v 1438.4734 0.0 2.2470703
v 2938.4734 0.0 2.2470703
v 2938.4734 0.0 159.24707
v 3095.4734 0.0 159.24707
v 3095.4734 0.0 2141.247
v 3145.4734 0.0 2141.247
v 3148.15 0.0 -2.5898438
vn 0.0 1.0 0.0
vn 0.0 0.0 0.0
f 4//1 3//1 14//1
f 13//1 4//1 14//1
f 12//1 13//1 14//1
f 11//1 12//1 14//1
f 10//1 11//1 14//1
f 9//1 10//1 14//1
f 9//1 14//1 1//1
f 8//1 9//1 1//1
f 7//1 8//1 1//1
f 6//1 7//1 1//1
f 6//1 1//1 2//1
f 5//1 6//1 2//1
f 5//1 2//1 3//1
f 5//1 3//1 4//1
g wall_1_2
usemtl wall_1_2
v 499.15002 0.0 2487.4102
v 495.40002 0.0 2491.1602
v 917.4 0.0 2491.1602
v 917.4 0.0 2487.4102
vn 0.0 -1.0 0.0
f 18//3 17//3 16//3
f 18//3 16//3 15//3
g wall_1_3
usemtl wall_1_2
v 917.4 0.0 2494.9102
f 17//3 19//3 2//3
f 17//3 2//3 16//3
g wall_1_4
usemtl wall_1_2
v 495.40002 250.1 2491.1602
v 499.15002 250.1 2487.4102
v 917.4 250.1 2487.4102
v 917.4 250.1 2491.1602
vn -0.70710677 0.0 -0.70710677
vn 1.0 0.0 0.0
vn 0.0 0.0 -1.0
f 15//4 16//4 20//4 21//4
f 17//5 18//5 22//5 23//5
f 18//6 15//6 21//6 22//6
g wall_1_5
usemtl wall_1_2
v 491.65002 250.1 2494.9102
v 917.4 250.1 2494.9102
vn 0.0 0.0 1.0
f 16//4 2//4 24//4 20//4
f 2//7 19//7 25//7 24//7
f 19//5 17//5 23//5 25//5
g wall_1_6
usemtl wall_1_2
f 21//1 20//1 23//1
f 21//1 23//1 22//1
g wall_1_7
usemtl wall_1_2
f 20//1 24//1 25//1
f 20//1 25//1 23//1
g wall_2_8
usemtl wall_1_2
v 491.65002 0.0 156.41016
v 495.40002 0.0 160.16016
f 27//3 16//3 2//3
f 27//3 2//3 26//3
g wall_2_9
usemtl wall_1_2
v 499.15002 0.0 163.91016
f 28//3 15//3 16//3
f 28//3 16//3 27//3
g wall_2_10
usemtl wall_1_2
v 491.65002 250.1 156.41016
v 495.40002 250.1 160.16016
vn -1.0 0.0 0.0
vn 0.70710677 0.0 0.70710677
vn 0.70710677 0.0 -0.70710677
f 26//8 2//8 24//8 29//8
f 2//9 16//9 20//9 24//9
f 27//10 26//10 29//10 30//10
g wall_2_11
usemtl wall_1_2
v 499.15002 250.1 163.91016
f 16//9 15//9 21//9 20//9
f 15//5 28//5 31//5 21//5
f 28//10 27//10 30//10 31//10
g wall_2_12
usemtl wall_1_2
f 29//1 24//1 20//1
f 29//1 20//1 30//1
g wall_2_13
usemtl wall_1_2
f 30//1 20//1 21//1
f 30//1 21//1 31//1
g wall_3_14
usemtl wall_1_2
v 1438.4 0.0 160.16016
v 1434.65 0.0 156.41016
f 33//3 32//3 27//3
f 33//3 27//3 26//3
g wall_3_15
usemtl wall_1_2
v 1442.15 0.0 163.91016
f 32//3 34//3 28//3
f 32//3 28//3 27//3
g wall_3_16
usemtl wall_1_2
v 1434.65 250.1 156.41016
v 1438.4 250.1 160.16016
vn -0.70710677 0.0 0.70710677
f 26//11 27//11 30//11 29//11
f 32//10 33//10 35//10 36//10
f 33//6 26//6 29//6 35//6
g wall_3_17
usemtl wall_1_2
v 1442.15 250.1 163.91016
f 27//11 28//11 31//11 30//11
f 28//7 34//7 37//7 31//7
f 34//10 32//10 36//10 37//10
g wall_3_18
usemtl wall_1_2
f 29//1 30//1 36//1
f 29//1 36//1 35//1
g wall_3_19
usemtl wall_1_2
f 30//1 31//1 37//1
f 30//1 37//1 36//1
g wall_4_20
usemtl wall_1_2
v 1434.65 0.0 -2.5898438
v 1438.4 0.0 1.1601562
f 39//3 32//3 33//3
f 39//3 33//3 38//3
g wall_4_21
usemtl wall_1_2
v 1442.15 0.0 4.9101562
f 40//3 34//3 32//3
f 40//3 32//3 39//3
g wall_4_22
usemtl wall_1_2
v 1434.65 250.1 -2.5898438
v 1438.4 250.1 1.1601562
f 38//8 33//8 35//8 41//8
f 33//11 32//11 36//11 35//11
f 39//10 38//10 41//10 42//10
g wall_4_23
usemtl wall_1_2
v 1442.15 250.1 4.9101562
f 32//11 34//11 37//11 36//11
f 34//5 40//5 43//5 37//5
f 40//10 39//10 42//10 43//10
g wall_4_24
usemtl wall_1_2
f 41//1 35//1 36//1
f 41//1 36//1 42//1
g wall_4_25
usemtl wall_1_2
f 42//1 36//1 37//1
f 42//1 37//1 43//1
g wall_5_26
usemtl wall_1_2
v 2938.4 0.0 1.1601562
v 2942.15 0.0 -2.5898438
f 45//3 44//3 39//3
f 45//3 39//3 38//3
g wall_5_27
usemtl wall_1_2
v 2934.65 0.0 4.9101562
f 44//3 46//3 40//3
f 44//3 40//3 39//3
g wall_5_28
usemtl wall_1_2
v 2942.15 250.1 -2.5898438
v 2938.4 250.1 1.1601562
f 38//11 39//11 42//11 41//11
f 44//9 45//9 47//9 48//9
f 45//6 38//6 41//6 47//6
g wall_5_29
usemtl wall_1_2
v 2934.65 250.1 4.9101562
f 39//11 40//11 43//11 42//11
f 40//7 46//7 49//7 43//7
f 46//9 44//9 48//9 49//9
g wall_5_30
usemtl wall_1_2
f 41//1 42//1 48//1
f 41//1 48//1 47//1
g wall_5_31
usemtl wall_1_2
f 42//1 43//1 49//1
f 42//1 49//1 48//1
g wall_6_32
usemtl wall_1_2
v 2938.4 0.0 160.16016
v 2942.15 0.0 156.41016
f 51//3 50//3 44//3
f 51//3 44//3 45//3
g wall_6_33
usemtl wall_1_2
v 2934.65 0.0 163.91016
f 50//3 52//3 46//3
f 50//3 46//3 44//3
g wall_6_34
usemtl wall_1_2
v 2942.15 250.1 156.41016
v 2938.4 250.1 160.16016
f 45//4 44//4 48//4 47//4
f 50//9 51//9 53//9 54//9
f 51//5 45//5 47//5 53//5
g wall_6_35
usemtl wall_1_2
v 2934.65 250.1 163.91016
f 44//4 46//4 49//4 48//4
f 46//8 52//8 55//8 49//8
f 52//9 50//9 54//9 55//9
g wall_6_36
usemtl wall_1_2
f 47//1 48//1 54//1
f 47//1 54//1 53//1
g wall_6_37
usemtl wall_1_2
f 48//1 49//1 55//1
f 48//1 55//1 54//1
g wall_7_38
usemtl wall_1_2
v 3093.4 0.0 160.16016
v 3097.15 0.0 156.41016
f 57//3 56//3 50//3
f 57//3 50//3 51//3
g wall_7_39
usemtl wall_1_2
v 3089.65 0.0 163.91016
f 56//3 58//3 52//3
f 56//3 52//3 50//3
g wall_7_40
usemtl wall_1_2
v 3097.15 250.1 156.41016
v 3093.4 250.1 160.16016
f 51//4 50//4 54//4 53//4
f 56//9 57//9 59//9 60//9
f 57//6 51//6 53//6 59//6
g wall_7_41
usemtl wall_1_2
v 3089.65 250.1 163.91016
f 50//4 52//4 55//4 54//4
f 52//7 58//7 61//7 55//7
f 58//9 56//9 60//9 61//9
g wall_7_42
usemtl wall_1_2
f 53//1 54//1 60//1
f 53//1 60//1 59//1
g wall_7_43
usemtl wall_1_2
f 54//1 55//1 61//1
f 54//1 61//1 60//1
g wall_8_44
usemtl wall_1_2
v 3093.4 0.0 2142.1602
v 3097.15 0.0 2138.336
f 63//3 62//3 56//3
f 63//3 56//3 57//3
g wall_8_45
usemtl wall_1_2
v 3089.65 0.0 2145.9844
f 62//3 64//3 58//3
f 62//3 58//3 56//3
g wall_8_46
usemtl wall_1_2
v 3097.15 250.1 2138.336
v 3093.4 250.1 2142.1602
vn 0.71400136 0.0 0.7001443
f 57//4 56//4 60//4 59//4
f 62//12 63//12 65//12 66//12
f 63//5 57//5 59//5 65//5
g wall_8_47
usemtl wall_1_2
v 3089.65 250.1 2145.9844
f 56//4 58//4 61//4 60//4
f 58//8 64//8 67//8 61//8
f 64//12 62//12 66//12 67//12
g wall_8_48
usemtl wall_1_2
f 59//1 60//1 66//1
f 59//1 66//1 65//1
g wall_8_49
usemtl wall_1_2
f 60//1 61//1 67//1
f 60//1 67//1 66//1
g wall_9_50
usemtl wall_1_2
v 3148.15 0.0 2137.336
v 3144.4 0.0 2141.1602
f 69//3 62//3 63//3
f 69//3 63//3 68//3
g wall_9_51
usemtl wall_1_2
v 3140.65 0.0 2144.9844
f 70//3 64//3 62//3
f 70//3 62//3 69//3
g wall_9_52
usemtl wall_1_2
v 3148.15 250.1 2137.336
v 3144.4 250.1 2141.1602
vn -0.019604074 0.0 -0.99980783
vn -0.71400136 0.0 -0.7001443
f 68//13 63//13 65//13 71//13
f 63//14 62//14 66//14 65//14
f 69//12 68//12 71//12 72//12
g wall_9_53
usemtl wall_1_2
v 3140.65 250.1 2144.9844
vn 0.019604074 0.0 0.99980783
f 62//14 64//14 67//14 66//14
f 64//15 70//15 73//15 67//15
f 70//12 69//12 72//12 73//12
g wall_9_54
usemtl wall_1_2
f 71//1 65//1 66//1
f 71//1 66//1 72//1
g wall_9_55
usemtl wall_1_2
f 72//1 66//1 67//1
f 72//1 67//1 73//1
g wall_10_56
usemtl wall_1_2
v 3144.4 0.0 2491.1602
f 3//3 74//3 69//3
f 3//3 69//3 68//3
g wall_10_57
usemtl wall_1_2
v 3140.65 0.0 2487.4102
f 74//3 75//3 70//3
f 74//3 70//3 69//3
g wall_10_58
usemtl wall_1_2
v 3148.15 250.1 2494.9102
v 3144.4 250.1 2491.1602
f 68//14 69//14 72//14 71//14
f 74//11 3//11 76//11 77//11
f 3//5 68//5 71//5 76//5
g wall_10_59
usemtl wall_1_2
v 3140.65 250.1 2487.4102
f 69//14 70//14 73//14 72//14
f 70//8 75//8 78//8 73//8
f 75//11 74//11 77//11 78//11
g wall_10_60
usemtl wall_1_2
f 71//1 72//1 77//1
f 71//1 77//1 76//1
g wall_10_61
usemtl wall_1_2
f 72//1 73//1 78//1
f 72//1 78//1 77//1
g wall_11_62
usemtl wall_1_2
v 1715.4 0.0 2491.1602
v 1715.4 0.0 2494.9102
f 74//3 3//3 80//3
f 74//3 80//3 79//3
g wall_11_63
usemtl wall_1_2
v 1715.4 0.0 2487.4102
f 75//3 74//3 79//3
f 75//3 79//3 81//3
g wall_11_64
usemtl wall_1_2
v 1715.4 250.1 2494.9102
v 1715.4 250.1 2491.1602
f 79//8 80//8 82//8 83//8
f 80//7 3//7 76//7 82//7
f 3//10 74//10 77//10 76//10
g wall_11_65
usemtl wall_1_2
v 1715.4 250.1 2487.4102
f 81//8 79//8 83//8 84//8
f 74//10 75//10 78//10 77//10
f 75//6 81//6 84//6 78//6
g wall_11_66
usemtl wall_1_2
f 83//1 82//1 76//1
f 83//1 76//1 77//1
g wall_11_67
usemtl wall_1_2
f 84//1 83//1 77//1
f 84//1 77//1 78//1
g wall_61_68
usemtl wall_1_2
v 913.65 0.0 2406.1602
v 913.65 0.0 2491.1602
v 917.4 0.0 2406.1602
f 87//3 17//3 86//3
f 87//3 86//3 85//3
g wall_61_69
usemtl wall_1_2
v 921.15 0.0 2491.1602
v 921.15 0.0 2406.1602
f 89//3 88//3 17//3
f 89//3 17//3 87//3
g wall_61_70
usemtl wall_1_2
v 913.65 250.1 2491.1602
v 913.65 250.1 2406.1602
v 917.4 250.1 2406.1602
f 85//8 86//8 90//8 91//8
f 86//7 17//7 23//7 90//7
f 87//6 85//6 91//6 92//6
g wall_61_71
usemtl wall_1_2
v 921.15 250.1 2491.1602
v 921.15 250.1 2406.1602
f 17//7 88//7 93//7 23//7
f 88//5 89//5 94//5 93//5
f 89//6 87//6 92//6 94//6
g wall_61_72
usemtl wall_1_2
f 91//1 90//1 23//1
f 91//1 23//1 92//1
g wall_61_73
usemtl wall_1_2
f 92//1 23//1 93//1
f 92//1 93//1 94//1
g wall_62_74
usemtl wall_1_2
v 913.65 0.0 1596.1602
v 913.65 0.0 2266.1602
v 917.4 0.0 2266.1602
v 917.4 0.0 1596.1602
f 98//3 97//3 96//3
f 98//3 96//3 95//3
g wall_62_75
usemtl wall_1_2
v 921.15 0.0 2266.1602
v 921.15 0.0 1596.1602
f 100//3 99//3 97//3
f 100//3 97//3 98//3
g wall_62_76
usemtl wall_1_2
v 913.65 250.1 2266.1602
v 913.65 250.1 1596.1602
v 917.4 250.1 2266.1602
v 917.4 250.1 1596.1602
f 95//8 96//8 101//8 102//8
f 96//7 97//7 103//7 101//7
f 98//6 95//6 102//6 104//6
g wall_62_77
usemtl wall_1_2
v 921.15 250.1 2266.1602
v 921.15 250.1 1596.1602
f 97//7 99//7 105//7 103//7
f 99//5 100//5 106//5 105//5
f 100//6 98//6 104//6 106//6
g wall_62_78
usemtl wall_1_2
f 102//1 101//1 103//1
f 102//1 103//1 104//1
g wall_62_79
usemtl wall_1_2
f 104//1 103//1 105//1
f 104//1 105//1 106//1
g wall_63_80
usemtl wall_1_2
v 827.4 0.0 1596.1602
v 827.4 0.0 1599.9102
v 917.4 0.0 1599.9102
f 98//3 109//3 108//3
f 98//3 108//3 107//3
g wall_63_81
usemtl wall_1_2
v 827.4 0.0 1592.4102
v 917.4 0.0 1592.4102
f 111//3 98//3 107//3
f 111//3 107//3 110//3
g wall_63_82
usemtl wall_1_2
v 827.4 250.1 1599.9102
v 827.4 250.1 1596.1602
v 917.4 250.1 1599.9102
f 107//8 108//8 112//8 113//8
f 108//7 109//7 114//7 112//7
f 109//5 98//5 104//5 114//5
g wall_63_83
usemtl wall_1_2
v 827.4 250.1 1592.4102
v 917.4 250.1 1592.4102
f 110//8 107//8 113//8 115//8
f 98//5 111//5 116//5 104//5
f 111//6 110//6 115//6 116//6
g wall_63_84
usemtl wall_1_2
f 113//1 112//1 114//1
f 113//1 114//1 104//1
g wall_63_85
usemtl wall_1_2
f 115//1 113//1 104//1
f 115//1 104//1 116//1
g wall_64_86
usemtl wall_1_2
v 495.40002 0.0 1486.1602
v 495.40002 0.0 1489.9102
v 827.4 0.0 1489.9102
v 827.4 0.0 1486.1602
f 120//3 119//3 118//3
f 120//3 118//3 117//3
g wall_64_87
usemtl wall_1_2
v 495.40002 0.0 1482.4102
v 827.4 0.0 1482.4102
f 122//3 120//3 117//3
f 122//3 117//3 121//3
g wall_64_88
usemtl wall_1_2
v 495.40002 250.1 1489.9102
v 495.40002 250.1 1486.1602
v 827.4 250.1 1489.9102
v 827.4 250.1 1486.1602
f 117//8 118//8 123//8 124//8
f 118//7 119//7 125//7 123//7
f 119//5 120//5 126//5 125//5
g wall_64_89
usemtl wall_1_2
v 495.40002 250.1 1482.4102
v 827.4 250.1 1482.4102
f 121//8 117//8 124//8 127//8
f 120//5 122//5 128//5 126//5
f 122//6 121//6 127//6 128//6
g wall_64_90
usemtl wall_1_2
f 124//1 123//1 125//1
f 124//1 125//1 126//1
g wall_64_91
usemtl wall_1_2
f 127//1 124//1 126//1
f 127//1 126//1 128//1
g wall_65_92
usemtl wall_1_2
v 937.4 0.0 1482.4102
v 937.4 0.0 1486.1602
v 1715.4 0.0 1486.1602
v 1715.4 0.0 1482.4102
f 132//3 131//3 130//3
f 132//3 130//3 129//3
g wall_65_93
usemtl wall_1_2
v 937.4 0.0 1489.9102
v 1715.4 0.0 1489.9102
f 131//3 134//3 133//3
f 131//3 133//3 130//3
g wall_65_94
usemtl wall_1_2
v 937.4 250.1 1486.1602
v 937.4 250.1 1482.4102
v 1715.4 250.1 1482.4102
v 1715.4 250.1 1486.1602
f 129//8 130//8 135//8 136//8
f 131//5 132//5 137//5 138//5
f 132//6 129//6 136//6 137//6
g wall_65_95
usemtl wall_1_2
v 937.4 250.1 1489.9102
v 1715.4 250.1 1489.9102
f 130//8 133//8 139//8 135//8
f 133//7 134//7 140//7 139//7
f 134//5 131//5 138//5 140//5
g wall_65_96
usemtl wall_1_2
f 136//1 135//1 138//1
f 136//1 138//1 137//1
g wall_65_97
usemtl wall_1_2
f 135//1 139//1 140//1
f 135//1 140//1 138//1
g wall_66_98
usemtl wall_1_2
v 1715.4 0.0 1596.1602
v 1715.4 0.0 1616.1602
v 1719.15 0.0 1616.1602
v 1719.15 0.0 1596.1602
f 144//3 143//3 142//3
f 144//3 142//3 141//3
g wall_66_99
usemtl wall_1_2
v 1711.65 0.0 1596.1602
v 1711.65 0.0 1616.1602
f 141//3 142//3 146//3
f 141//3 146//3 145//3
g wall_66_100
usemtl wall_1_2
v 1719.15 250.1 1616.1602
v 1715.4 250.1 1616.1602
v 1719.15 250.1 1596.1602
v 1715.4 250.1 1596.1602
f 142//7 143//7 147//7 148//7
f 143//5 144//5 149//5 147//5
f 144//6 141//6 150//6 149//6
g wall_66_101
usemtl wall_1_2
v 1711.65 250.1 1616.1602
v 1711.65 250.1 1596.1602
f 145//8 146//8 151//8 152//8
f 146//7 142//7 148//7 151//7
f 141//6 145//6 152//6 150//6
g wall_66_102
usemtl wall_1_2
f 150//1 148//1 147//1
f 150//1 147//1 149//1
g wall_66_103
usemtl wall_1_2
f 152//1 151//1 148//1
f 152//1 148//1 150//1
g wall_67_104
usemtl wall_1_2
v 1715.4 0.0 1681.1602
v 1715.4 0.0 1911.1602
v 1719.15 0.0 1911.1602
v 1719.15 0.0 1681.1602
f 156//3 155//3 154//3
f 156//3 154//3 153//3
g wall_67_105
usemtl wall_1_2
v 1711.65 0.0 1681.1602
v 1711.65 0.0 1911.1602
f 153//3 154//3 158//3
f 153//3 158//3 157//3
g wall_67_106
usemtl wall_1_2
v 1719.15 250.1 1911.1602
v 1715.4 250.1 1911.1602
v 1719.15 250.1 1681.1602
v 1715.4 250.1 1681.1602
f 154//7 155//7 159//7 160//7
f 155//5 156//5 161//5 159//5
f 156//6 153//6 162//6 161//6
g wall_67_107
usemtl wall_1_2
v 1711.65 250.1 1911.1602
v 1711.65 250.1 1681.1602
f 157//8 158//8 163//8 164//8
f 158//7 154//7 160//7 163//7
f 153//6 157//6 164//6 162//6
g wall_67_108
usemtl wall_1_2
f 162//1 160//1 159//1
f 162//1 159//1 161//1
g wall_67_109
usemtl wall_1_2
f 164//1 163//1 160//1
f 164//1 160//1 162//1
g wall_68_110
usemtl wall_1_2
v 1715.4 0.0 1907.4102
v 2315.4 0.0 1911.1602
v 2319.15 0.0 1907.4102
f 167//3 166//3 154//3
f 167//3 154//3 165//3
g wall_68_111
usemtl wall_1_2
v 1715.4 0.0 1914.9102
v 2311.65 0.0 1914.9102
f 166//3 169//3 168//3
f 166//3 168//3 154//3
g wall_68_112
usemtl wall_1_2
v 1715.4 250.1 1907.4102
v 2319.15 250.1 1907.4102
v 2315.4 250.1 1911.1602
f 165//8 154//8 160//8 170//8
f 166//9 167//9 171//9 172//9
f 167//6 165//6 170//6 171//6
g wall_68_113
usemtl wall_1_2
v 1715.4 250.1 1914.9102
v 2311.65 250.1 1914.9102
f 154//8 168//8 173//8 160//8
f 168//7 169//7 174//7 173//7
f 169//9 166//9 172//9 174//9
g wall_68_114
usemtl wall_1_2
f 170//1 160//1 172//1
f 170//1 172//1 171//1
g wall_68_115
usemtl wall_1_2
f 160//1 173//1 174//1
f 160//1 174//1 172//1
g wall_69_116
usemtl wall_1_2
v 2315.4 0.0 2021.1602
v 2319.15 0.0 2021.1602
f 176//3 175//3 166//3
f 176//3 166//3 167//3
g wall_69_117
usemtl wall_1_2
v 2311.65 0.0 2021.1602
f 175//3 177//3 169//3
f 175//3 169//3 166//3
g wall_69_118
usemtl wall_1_2
v 2319.15 250.1 2021.1602
v 2315.4 250.1 2021.1602
f 167//4 166//4 172//4 171//4
f 175//7 176//7 178//7 179//7
f 176//5 167//5 171//5 178//5
g wall_69_119
usemtl wall_1_2
v 2311.65 250.1 2021.1602
f 166//4 169//4 174//4 172//4
f 169//8 177//8 180//8 174//8
f 177//7 175//7 179//7 180//7
g wall_69_120
usemtl wall_1_2
f 171//1 172//1 179//1
f 171//1 179//1 178//1
g wall_69_121
usemtl wall_1_2
f 172//1 174//1 180//1
f 172//1 180//1 179//1
g wall_70_122
usemtl wall_1_2
v 2195.4 0.0 2021.1602
v 2195.4 0.0 2024.9102
v 2315.4 0.0 2024.9102
f 175//3 183//3 182//3
f 175//3 182//3 181//3
g wall_70_123
usemtl wall_1_2
v 2195.4 0.0 2017.4102
v 2315.4 0.0 2017.4102
f 185//3 175//3 181//3
f 185//3 181//3 184//3
g wall_70_124
usemtl wall_1_2
v 2195.4 250.1 2024.9102
v 2195.4 250.1 2021.1602
v 2315.4 250.1 2024.9102
f 181//8 182//8 186//8 187//8
f 182//7 183//7 188//7 186//7
f 183//5 175//5 179//5 188//5
g wall_70_125
usemtl wall_1_2
v 2195.4 250.1 2017.4102
v 2315.4 250.1 2017.4102
f 184//8 181//8 187//8 189//8
f 175//5 185//5 190//5 179//5
f 185//6 184//6 189//6 190//6
g wall_70_126
usemtl wall_1_2
f 187//1 186//1 188//1
f 187//1 188//1 179//1
g wall_70_127
usemtl wall_1_2
f 189//1 187//1 179//1
f 189//1 179//1 190//1
g wall_71_128
usemtl wall_1_2
v 2055.4 0.0 2021.1602
v 2055.4 0.0 2024.9102
v 2075.4 0.0 2024.9102
v 2075.4 0.0 2021.1602
f 194//3 193//3 192//3
f 194//3 192//3 191//3
g wall_71_129
usemtl wall_1_2
v 2055.4 0.0 2017.4102
v 2075.4 0.0 2017.4102
f 196//3 194//3 191//3
f 196//3 191//3 195//3
g wall_71_130
usemtl wall_1_2
v 2055.4 250.1 2024.9102
v 2055.4 250.1 2021.1602
v 2075.4 250.1 2024.9102
v 2075.4 250.1 2021.1602
f 191//8 192//8 197//8 198//8
f 192//7 193//7 199//7 197//7
f 193//5 194//5 200//5 199//5
g wall_71_131
usemtl wall_1_2
v 2055.4 250.1 2017.4102
v 2075.4 250.1 2017.4102
f 195//8 191//8 198//8 201//8
f 194//5 196//5 202//5 200//5
f 196//6 195//6 201//6 202//6
g wall_71_132
usemtl wall_1_2
f 198//1 197//1 199//1
f 198//1 199//1 200//1
g wall_71_133
usemtl wall_1_2
f 201//1 198//1 200//1
f 201//1 200//1 202//1
g wall_72_134
usemtl wall_1_2
v 1815.3999 0.0 2021.1602
v 1815.3999 0.0 2024.9102
v 1935.3999 0.0 2024.9102
v 1935.3999 0.0 2021.1602
f 206//3 205//3 204//3
f 206//3 204//3 203//3
g wall_72_135
usemtl wall_1_2
v 1815.3999 0.0 2017.4102
v 1935.3999 0.0 2017.4102
f 208//3 206//3 203//3
f 208//3 203//3 207//3
g wall_72_136
usemtl wall_1_2
v 1815.3999 250.1 2024.9102
v 1815.3999 250.1 2021.1602
v 1935.3999 250.1 2024.9102
v 1935.3999 250.1 2021.1602
f 203//8 204//8 209//8 210//8
f 204//7 205//7 211//7 209//7
f 205//5 206//5 212//5 211//5
g wall_72_137
usemtl wall_1_2
v 1815.3999 250.1 2017.4102
v 1935.3999 250.1 2017.4102
f 207//8 203//8 210//8 213//8
f 206//5 208//5 214//5 212//5
f 208//6 207//6 213//6 214//6
g wall_72_138
usemtl wall_1_2
f 210//1 209//1 211//1
f 210//1 211//1 212//1
g wall_72_139
usemtl wall_1_2
f 213//1 210//1 212//1
f 213//1 212//1 214//1
g wall_73_140
usemtl wall_1_2
v 1715.4 0.0 2021.1602
v 1719.15 0.0 2491.1602
v 1719.15 0.0 2021.1602
f 217//3 216//3 79//3
f 217//3 79//3 215//3
g wall_73_141
usemtl wall_1_2
v 1711.65 0.0 2021.1602
v 1711.65 0.0 2491.1602
f 215//3 79//3 219//3
f 215//3 219//3 218//3
g wall_73_142
usemtl wall_1_2
v 1719.15 250.1 2491.1602
v 1719.15 250.1 2021.1602
v 1715.4 250.1 2021.1602
f 79//7 216//7 220//7 83//7
f 216//5 217//5 221//5 220//5
f 217//6 215//6 222//6 221//6
g wall_73_143
usemtl wall_1_2
v 1711.65 250.1 2491.1602
v 1711.65 250.1 2021.1602
f 218//8 219//8 223//8 224//8
f 219//7 79//7 83//7 223//7
f 215//6 218//6 224//6 222//6
g wall_73_144
usemtl wall_1_2
f 222//1 83//1 220//1
f 222//1 220//1 221//1
g wall_73_145
usemtl wall_1_2
f 224//1 223//1 83//1
f 224//1 83//1 222//1
g room_84_146
usemtl room_84_146
f 7//1 6//1 5//1
f 7//1 5//1 4//1
f 8//1 7//1 4//1
f 10//1 9//1 8//1
f 12//1 11//1 10//1
f 12//1 10//1 8//1
f 12//1 8//1 4//1
f 12//1 4//1 13//1
